<svg xmlns="http://www.w3.org/2000/svg" xmlns:xlink="http://www.w3.org/1999/xlink" width="500" zoomAndPan="magnify" viewBox="0 0 375 374.999991" height="500" preserveAspectRatio="xMidYMid meet" version="1.0"><defs><g/><clipPath id="dd761c233b"><path d="M 0 2 L 56 2 L 56 65 L 0 65 Z M 0 2 " clip-rule="nonzero"/></clipPath><clipPath id="d182dff133"><rect x="0" width="287" y="0" height="81"/></clipPath><clipPath id="f1df2fd931"><path d="M 20.914062 185.601562 L 31.386719 185.601562 L 31.386719 196.074219 L 20.914062 196.074219 Z M 20.914062 185.601562 " clip-rule="nonzero"/></clipPath><clipPath id="6ae0291069"><path d="M 26.148438 185.601562 C 23.257812 185.601562 20.914062 187.945312 20.914062 190.839844 C 20.914062 193.730469 23.257812 196.074219 26.148438 196.074219 C 29.042969 196.074219 31.386719 193.730469 31.386719 190.839844 C 31.386719 187.945312 29.042969 185.601562 26.148438 185.601562 Z M 26.148438 185.601562 " clip-rule="nonzero"/></clipPath><clipPath id="e2c5e9cc5e"><path d="M 0.914062 0.601562 L 11.386719 0.601562 L 11.386719 11.074219 L 0.914062 11.074219 Z M 0.914062 0.601562 " clip-rule="nonzero"/></clipPath><clipPath id="c94065c636"><path d="M 6.148438 0.601562 C 3.257812 0.601562 0.914062 2.945312 0.914062 5.839844 C 0.914062 8.730469 3.257812 11.074219 6.148438 11.074219 C 9.042969 11.074219 11.386719 8.730469 11.386719 5.839844 C 11.386719 2.945312 9.042969 0.601562 6.148438 0.601562 Z M 6.148438 0.601562 " clip-rule="nonzero"/></clipPath><clipPath id="9467e27721"><rect x="0" width="12" y="0" height="12"/></clipPath><clipPath id="22e90d262a"><rect x="0" width="70" y="0" height="102"/></clipPath><clipPath id="c49338cebc"><path d="M 56.777344 171.648438 L 67.25 171.648438 L 67.25 182.121094 L 56.777344 182.121094 Z M 56.777344 171.648438 " clip-rule="nonzero"/></clipPath><clipPath id="67a6ef737b"><path d="M 62.011719 171.648438 C 59.121094 171.648438 56.777344 173.992188 56.777344 176.886719 C 56.777344 179.777344 59.121094 182.121094 62.011719 182.121094 C 64.90625 182.121094 67.25 179.777344 67.25 176.886719 C 67.25 173.992188 64.90625 171.648438 62.011719 171.648438 Z M 62.011719 171.648438 " clip-rule="nonzero"/></clipPath><clipPath id="a460d7d1bd"><path d="M 0.777344 0.648438 L 11.25 0.648438 L 11.25 11.121094 L 0.777344 11.121094 Z M 0.777344 0.648438 " clip-rule="nonzero"/></clipPath><clipPath id="654196b235"><path d="M 6.011719 0.648438 C 3.121094 0.648438 0.777344 2.992188 0.777344 5.886719 C 0.777344 8.777344 3.121094 11.121094 6.011719 11.121094 C 8.90625 11.121094 11.25 8.777344 11.25 5.886719 C 11.25 2.992188 8.90625 0.648438 6.011719 0.648438 Z M 6.011719 0.648438 " clip-rule="nonzero"/></clipPath><clipPath id="0df21481cf"><rect x="0" width="12" y="0" height="12"/></clipPath><clipPath id="158a99ba3c"><path d="M 26 2 L 86 2 L 86 65 L 26 65 Z M 26 2 " clip-rule="nonzero"/></clipPath><clipPath id="5d3c477408"><rect x="0" width="86" y="0" height="81"/></clipPath><clipPath id="9ec1e05742"><path d="M 296.820312 190.105469 L 307.292969 190.105469 L 307.292969 200.578125 L 296.820312 200.578125 Z M 296.820312 190.105469 " clip-rule="nonzero"/></clipPath><clipPath id="1986563f66"><path d="M 302.054688 190.105469 C 299.164062 190.105469 296.820312 192.449219 296.820312 195.34375 C 296.820312 198.234375 299.164062 200.578125 302.054688 200.578125 C 304.949219 200.578125 307.292969 198.234375 307.292969 195.34375 C 307.292969 192.449219 304.949219 190.105469 302.054688 190.105469 Z M 302.054688 190.105469 " clip-rule="nonzero"/></clipPath><clipPath id="b9e07b533b"><path d="M 0.820312 0.105469 L 11.292969 0.105469 L 11.292969 10.578125 L 0.820312 10.578125 Z M 0.820312 0.105469 " clip-rule="nonzero"/></clipPath><clipPath id="ad29c1adb9"><path d="M 6.054688 0.105469 C 3.164062 0.105469 0.820312 2.449219 0.820312 5.34375 C 0.820312 8.234375 3.164062 10.578125 6.054688 10.578125 C 8.949219 10.578125 11.292969 8.234375 11.292969 5.34375 C 11.292969 2.449219 8.949219 0.105469 6.054688 0.105469 Z M 6.054688 0.105469 " clip-rule="nonzero"/></clipPath><clipPath id="cf0afaccee"><rect x="0" width="12" y="0" height="11"/></clipPath><clipPath id="526d7deadb"><path d="M 196.527344 171.648438 L 207.003906 171.648438 L 207.003906 182.121094 L 196.527344 182.121094 Z M 196.527344 171.648438 " clip-rule="nonzero"/></clipPath><clipPath id="86c3a52e7a"><path d="M 201.765625 171.648438 C 198.875 171.648438 196.527344 173.992188 196.527344 176.886719 C 196.527344 179.777344 198.875 182.121094 201.765625 182.121094 C 204.660156 182.121094 207.003906 179.777344 207.003906 176.886719 C 207.003906 173.992188 204.660156 171.648438 201.765625 171.648438 Z M 201.765625 171.648438 " clip-rule="nonzero"/></clipPath><clipPath id="0cd0d3bdca"><path d="M 0.527344 0.648438 L 11.003906 0.648438 L 11.003906 11.121094 L 0.527344 11.121094 Z M 0.527344 0.648438 " clip-rule="nonzero"/></clipPath><clipPath id="80ba001070"><path d="M 5.765625 0.648438 C 2.875 0.648438 0.527344 2.992188 0.527344 5.886719 C 0.527344 8.777344 2.875 11.121094 5.765625 11.121094 C 8.660156 11.121094 11.003906 8.777344 11.003906 5.886719 C 11.003906 2.992188 8.660156 0.648438 5.765625 0.648438 Z M 5.765625 0.648438 " clip-rule="nonzero"/></clipPath><clipPath id="91382ef267"><rect x="0" width="12" y="0" height="12"/></clipPath><clipPath id="83d5771444"><path d="M 242.234375 195.34375 L 252.707031 195.34375 L 252.707031 205.816406 L 242.234375 205.816406 Z M 242.234375 195.34375 " clip-rule="nonzero"/></clipPath><clipPath id="ea73d42d3c"><path d="M 247.46875 195.34375 C 244.578125 195.34375 242.234375 197.6875 242.234375 200.578125 C 242.234375 203.472656 244.578125 205.816406 247.46875 205.816406 C 250.363281 205.816406 252.707031 203.472656 252.707031 200.578125 C 252.707031 197.6875 250.363281 195.34375 247.46875 195.34375 Z M 247.46875 195.34375 " clip-rule="nonzero"/></clipPath><clipPath id="db902c4c17"><path d="M 0.234375 0.34375 L 10.707031 0.34375 L 10.707031 10.816406 L 0.234375 10.816406 Z M 0.234375 0.34375 " clip-rule="nonzero"/></clipPath><clipPath id="d4e84083c6"><path d="M 5.46875 0.34375 C 2.578125 0.34375 0.234375 2.6875 0.234375 5.578125 C 0.234375 8.472656 2.578125 10.816406 5.46875 10.816406 C 8.363281 10.816406 10.707031 8.472656 10.707031 5.578125 C 10.707031 2.6875 8.363281 0.34375 5.46875 0.34375 Z M 5.46875 0.34375 " clip-rule="nonzero"/></clipPath><clipPath id="a63c2f59a4"><rect x="0" width="11" y="0" height="11"/></clipPath></defs><rect x="-37.5" width="450" fill="#ffffff" y="-37.499999" height="449.999989" fill-opacity="1"/><rect x="-37.5" width="450" fill="#ffffff" y="-37.499999" height="449.999989" fill-opacity="1"/><g transform="matrix(1, 0, 0, 1, 0, 145)"><g clip-path="url(#d182dff133)"><g clip-path="url(#dd761c233b)"><g fill="#f8992e" fill-opacity="1"><g transform="translate(-4.444337, 64.020977)"><g><path d="M 35.90625 0 L 24.71875 0 L 24.71875 -23.234375 L 0.671875 -61.125 L 13.703125 -61.125 L 30.34375 -33.21875 L 30.375 -33.21875 L 46.875 -61.125 L 60.046875 -61.125 L 35.90625 -23.328125 Z M 35.90625 0 "/></g></g></g></g><g fill="#f8992e" fill-opacity="1"><g transform="translate(56.277707, 64.020977)"><g/></g></g><g fill="#f8992e" fill-opacity="1"><g transform="translate(78.701569, 64.020977)"><g/></g></g><g fill="#f8992e" fill-opacity="1"><g transform="translate(101.125431, 64.020977)"><g/></g></g><g fill="#f8992e" fill-opacity="1"><g transform="translate(123.552242, 64.020977)"><g><path d="M 35.234375 1.296875 C 31.640625 1.296875 28.222656 0.765625 24.984375 -0.296875 C 21.753906 -1.359375 18.796875 -2.863281 16.109375 -4.8125 C 13.429688 -6.757812 11.109375 -9.066406 9.140625 -11.734375 C 7.179688 -14.398438 5.660156 -17.332031 4.578125 -20.53125 C 3.503906 -23.738281 2.96875 -27.113281 2.96875 -30.65625 C 2.96875 -34.21875 3.503906 -37.59375 4.578125 -40.78125 C 5.660156 -43.976562 7.179688 -46.898438 9.140625 -49.546875 C 11.109375 -52.203125 13.429688 -54.503906 16.109375 -56.453125 C 18.796875 -58.398438 21.753906 -59.90625 24.984375 -60.96875 C 28.222656 -62.03125 31.640625 -62.5625 35.234375 -62.5625 C 38.472656 -62.5625 41.679688 -62.082031 44.859375 -61.125 C 48.035156 -60.164062 51 -58.703125 53.75 -56.734375 C 56.507812 -54.773438 58.847656 -52.296875 60.765625 -49.296875 C 62.679688 -46.304688 64 -42.773438 64.71875 -38.703125 L 53.296875 -38.703125 C 52.492188 -41.847656 51.203125 -44.421875 49.421875 -46.421875 C 47.640625 -48.429688 45.503906 -49.914062 43.015625 -50.875 C 40.523438 -51.832031 37.828125 -52.3125 34.921875 -52.3125 C 32.046875 -52.3125 29.347656 -51.796875 26.828125 -50.765625 C 24.316406 -49.734375 22.109375 -48.257812 20.203125 -46.34375 C 18.296875 -44.425781 16.8125 -42.140625 15.75 -39.484375 C 14.6875 -36.828125 14.15625 -33.867188 14.15625 -30.609375 C 14.15625 -27.285156 14.6875 -24.296875 15.75 -21.640625 C 16.8125 -18.984375 18.296875 -16.710938 20.203125 -14.828125 C 22.109375 -12.941406 24.316406 -11.492188 26.828125 -10.484375 C 29.347656 -9.484375 32.046875 -8.984375 34.921875 -8.984375 C 37.828125 -8.984375 40.515625 -9.460938 42.984375 -10.421875 C 45.460938 -11.378906 47.597656 -12.863281 49.390625 -14.875 C 51.191406 -16.882812 52.484375 -19.445312 53.265625 -22.5625 L 64.71875 -22.5625 C 64 -18.488281 62.679688 -14.945312 60.765625 -11.9375 C 58.847656 -8.925781 56.523438 -6.445312 53.796875 -4.5 C 51.066406 -2.550781 48.109375 -1.097656 44.921875 -0.140625 C 41.734375 0.816406 38.503906 1.296875 35.234375 1.296875 Z M 35.234375 1.296875 "/></g></g></g><g fill="#f8992e" fill-opacity="1"><g transform="translate(191.273205, 64.020977)"><g><path d="M 35.90625 1.296875 C 32.28125 1.296875 28.816406 0.765625 25.515625 -0.296875 C 22.222656 -1.359375 19.207031 -2.863281 16.46875 -4.8125 C 13.726562 -6.757812 11.347656 -9.066406 9.328125 -11.734375 C 7.304688 -14.398438 5.738281 -17.332031 4.625 -20.53125 C 3.519531 -23.738281 2.96875 -27.113281 2.96875 -30.65625 C 2.96875 -34.21875 3.519531 -37.59375 4.625 -40.78125 C 5.738281 -43.976562 7.304688 -46.898438 9.328125 -49.546875 C 11.347656 -52.203125 13.726562 -54.503906 16.46875 -56.453125 C 19.207031 -58.398438 22.222656 -59.90625 25.515625 -60.96875 C 28.816406 -62.03125 32.28125 -62.5625 35.90625 -62.5625 C 39.53125 -62.5625 42.988281 -62.03125 46.28125 -60.96875 C 49.582031 -59.90625 52.609375 -58.398438 55.359375 -56.453125 C 58.117188 -54.503906 60.507812 -52.203125 62.53125 -49.546875 C 64.5625 -46.898438 66.128906 -43.976562 67.234375 -40.78125 C 68.347656 -37.59375 68.90625 -34.21875 68.90625 -30.65625 C 68.90625 -27.113281 68.347656 -23.738281 67.234375 -20.53125 C 66.128906 -17.332031 64.5625 -14.398438 62.53125 -11.734375 C 60.507812 -9.066406 58.117188 -6.757812 55.359375 -4.8125 C 52.609375 -2.863281 49.59375 -1.359375 46.3125 -0.296875 C 43.03125 0.765625 39.5625 1.296875 35.90625 1.296875 Z M 35.90625 -8.984375 C 38.9375 -8.984375 41.769531 -9.519531 44.40625 -10.59375 C 47.039062 -11.675781 49.363281 -13.191406 51.375 -15.140625 C 53.382812 -17.085938 54.945312 -19.378906 56.0625 -22.015625 C 57.1875 -24.660156 57.75 -27.523438 57.75 -30.609375 C 57.75 -33.722656 57.1875 -36.601562 56.0625 -39.25 C 54.945312 -41.90625 53.382812 -44.207031 51.375 -46.15625 C 49.363281 -48.101562 47.039062 -49.613281 44.40625 -50.6875 C 41.769531 -51.769531 38.9375 -52.3125 35.90625 -52.3125 C 32.914062 -52.3125 30.097656 -51.769531 27.453125 -50.6875 C 24.816406 -49.613281 22.503906 -48.09375 20.515625 -46.125 C 18.523438 -44.164062 16.96875 -41.867188 15.84375 -39.234375 C 14.71875 -36.597656 14.15625 -33.722656 14.15625 -30.609375 C 14.15625 -27.523438 14.71875 -24.660156 15.84375 -22.015625 C 16.96875 -19.378906 18.523438 -17.085938 20.515625 -15.140625 C 22.503906 -13.191406 24.816406 -11.675781 27.453125 -10.59375 C 30.097656 -9.519531 32.914062 -8.984375 35.90625 -8.984375 Z M 35.90625 -8.984375 "/></g></g></g><g fill="#f8992e" fill-opacity="1"><g transform="translate(263.132895, 64.020977)"><g/></g></g></g></g><g clip-path="url(#f1df2fd931)"><g clip-path="url(#6ae0291069)"><g transform="matrix(1, 0, 0, 1, 20, 185)"><g clip-path="url(#9467e27721)"><g clip-path="url(#e2c5e9cc5e)"><g clip-path="url(#c94065c636)"><path fill="#004aad" d="M 0.914062 0.601562 L 11.386719 0.601562 L 11.386719 11.074219 L 0.914062 11.074219 Z M 0.914062 0.601562 " fill-opacity="1" fill-rule="nonzero"/></g></g></g></g></g></g><g transform="matrix(1, 0, 0, 1, 48, 128)"><g clip-path="url(#22e90d262a)"><g fill="#f8992e" fill-opacity="1"><g transform="translate(1.08593, 80.989836)"><g><path d="M 64.03125 -30.421875 C 64.03125 -29.691406 64.007812 -29.003906 63.96875 -28.359375 C 63.9375 -27.710938 63.863281 -26.835938 63.75 -25.734375 L 17.84375 -25.734375 C 18.332031 -22.523438 19.347656 -19.796875 20.890625 -17.546875 C 22.441406 -15.296875 24.359375 -13.570312 26.640625 -12.375 C 28.929688 -11.175781 31.429688 -10.578125 34.140625 -10.578125 C 37.640625 -10.578125 40.472656 -11.269531 42.640625 -12.65625 C 44.816406 -14.050781 46.398438 -15.988281 47.390625 -18.46875 L 62.484375 -18.46875 C 61.765625 -15.832031 60.578125 -13.296875 58.921875 -10.859375 C 57.265625 -8.421875 55.234375 -6.257812 52.828125 -4.375 C 50.429688 -2.488281 47.675781 -0.992188 44.5625 0.109375 C 41.457031 1.210938 38.078125 1.765625 34.421875 1.765625 C 29.992188 1.765625 25.921875 0.957031 22.203125 -0.65625 C 18.492188 -2.28125 15.273438 -4.519531 12.546875 -7.375 C 9.828125 -10.226562 7.710938 -13.539062 6.203125 -17.3125 C 4.691406 -21.09375 3.9375 -25.117188 3.9375 -29.390625 C 3.9375 -33.691406 4.691406 -37.71875 6.203125 -41.46875 C 7.710938 -45.226562 9.828125 -48.535156 12.546875 -51.390625 C 15.273438 -54.253906 18.492188 -56.492188 22.203125 -58.109375 C 25.921875 -59.734375 29.992188 -60.546875 34.421875 -60.546875 C 38.835938 -60.546875 42.863281 -59.742188 46.5 -58.140625 C 50.144531 -56.546875 53.273438 -54.347656 55.890625 -51.546875 C 58.503906 -48.742188 60.515625 -45.53125 61.921875 -41.90625 C 63.328125 -38.289062 64.03125 -34.460938 64.03125 -30.421875 Z M 18.40625 -36.421875 L 49.90625 -36.421875 C 49.71875 -38.628906 48.898438 -40.640625 47.453125 -42.453125 C 46.003906 -44.265625 44.132812 -45.722656 41.84375 -46.828125 C 39.5625 -47.929688 37.066406 -48.484375 34.359375 -48.484375 C 32.035156 -48.484375 29.804688 -48.050781 27.671875 -47.1875 C 25.535156 -46.332031 23.65625 -45.019531 22.03125 -43.25 C 20.414062 -41.476562 19.207031 -39.203125 18.40625 -36.421875 Z M 18.40625 -36.421875 "/></g></g></g></g></g><g clip-path="url(#c49338cebc)"><g clip-path="url(#67a6ef737b)"><g transform="matrix(1, 0, 0, 1, 56, 171)"><g clip-path="url(#0df21481cf)"><g clip-path="url(#a460d7d1bd)"><g clip-path="url(#654196b235)"><path fill="#235525" d="M 0.777344 0.648438 L 11.25 0.648438 L 11.25 11.121094 L 0.777344 11.121094 Z M 0.777344 0.648438 " fill-opacity="1" fill-rule="nonzero"/></g></g></g></g></g></g><g transform="matrix(1, 0, 0, 1, 289, 145)"><g clip-path="url(#5d3c477408)"><g fill="#2dbad0" fill-opacity="1"><g transform="translate(0.203003, 64.020977)"><g><path d="M 18.46875 0 L 7.28125 0 L 7.28125 -61.125 L 18.46875 -61.125 Z M 18.46875 0 "/></g></g></g><g clip-path="url(#158a99ba3c)"><g fill="#2dbad0" fill-opacity="1"><g transform="translate(25.90731, 64.020977)"><g><path d="M 61.890625 0 L 50.0625 0 L 45.21875 -11.828125 L 17.078125 -11.828125 L 12.21875 0 L 0.40625 0 L 25.84375 -61.171875 L 36.453125 -61.171875 Z M 30.75 -45.265625 L 20.90625 -21.171875 L 41.390625 -21.171875 L 31.5 -45.265625 L 31.234375 -46.75 L 31.109375 -46.75 Z M 30.75 -45.265625 "/></g></g></g></g></g></g><g clip-path="url(#9ec1e05742)"><g clip-path="url(#1986563f66)"><g transform="matrix(1, 0, 0, 1, 296, 190)"><g clip-path="url(#cf0afaccee)"><g clip-path="url(#b9e07b533b)"><g clip-path="url(#ad29c1adb9)"><path fill="#156427" d="M 0.820312 0.105469 L 11.292969 0.105469 L 11.292969 10.578125 L 0.820312 10.578125 Z M 0.820312 0.105469 " fill-opacity="1" fill-rule="nonzero"/></g></g></g></g></g></g><g clip-path="url(#526d7deadb)"><g clip-path="url(#86c3a52e7a)"><g transform="matrix(1, 0, 0, 1, 196, 171)"><g clip-path="url(#91382ef267)"><g clip-path="url(#0cd0d3bdca)"><g clip-path="url(#80ba001070)"><path fill="#156427" d="M 0.527344 0.648438 L 11.003906 0.648438 L 11.003906 11.121094 L 0.527344 11.121094 Z M 0.527344 0.648438 " fill-opacity="1" fill-rule="nonzero"/></g></g></g></g></g></g><g clip-path="url(#83d5771444)"><g clip-path="url(#ea73d42d3c)"><g transform="matrix(1, 0, 0, 1, 242, 195)"><g clip-path="url(#a63c2f59a4)"><g clip-path="url(#db902c4c17)"><g clip-path="url(#d4e84083c6)"><path fill="#156427" d="M 0.234375 0.34375 L 10.707031 0.34375 L 10.707031 10.816406 L 0.234375 10.816406 Z M 0.234375 0.34375 " fill-opacity="1" fill-rule="nonzero"/></g></g></g></g></g></g></svg>